<mxfile host="Electron" agent="Mozilla/5.0 (Windows NT 10.0; Win64; x64) AppleWebKit/537.36 (KHTML, like Gecko) draw.io/25.0.2 Chrome/128.0.6613.186 Electron/32.2.5 Safari/537.36" version="25.0.2" pages="3">
  <diagram name="Diagrama de Asociaciones" id="_LDB6TuZaoVNct_MO1kB">
    <mxGraphModel dx="1663" dy="829" grid="1" gridSize="10" guides="1" tooltips="1" connect="1" arrows="1" fold="1" page="1" pageScale="1" pageWidth="827" pageHeight="1169" math="0" shadow="0">
      <root>
        <mxCell id="0" />
        <mxCell id="1" parent="0" />
        <mxCell id="Ycs4y-Skzxj3a3CjMxJI-1" value="&lt;font style=&quot;font-size: 24px;&quot;&gt;Diagrama de Asociaciones&lt;/font&gt;" style="text;html=1;align=center;verticalAlign=middle;whiteSpace=wrap;rounded=0;" vertex="1" parent="1">
          <mxGeometry x="280" y="100" width="60" height="30" as="geometry" />
        </mxCell>
        <mxCell id="Ycs4y-Skzxj3a3CjMxJI-4" value="&lt;span style=&quot;font-size: 14px;&quot;&gt;&lt;b&gt;1.0 Validar acceso al sistema&lt;/b&gt;&lt;/span&gt;" style="ellipse;whiteSpace=wrap;html=1;fillColor=#dae8fc;strokeColor=#6c8ebf;strokeWidth=3;" vertex="1" parent="1">
          <mxGeometry x="250" y="290" width="220" height="80" as="geometry" />
        </mxCell>
        <mxCell id="Ycs4y-Skzxj3a3CjMxJI-5" value="&amp;lt;&amp;lt;include&amp;gt;&amp;gt;" style="html=1;verticalAlign=bottom;labelBackgroundColor=none;endArrow=open;endFill=0;dashed=1;rounded=0;fontSize=13;exitX=0;exitY=1;exitDx=0;exitDy=0;entryX=1;entryY=0.5;entryDx=0;entryDy=0;" edge="1" parent="1" source="Ycs4y-Skzxj3a3CjMxJI-4" target="Ycs4y-Skzxj3a3CjMxJI-35">
          <mxGeometry width="160" relative="1" as="geometry">
            <mxPoint x="330" y="410" as="sourcePoint" />
            <mxPoint x="330" y="510" as="targetPoint" />
          </mxGeometry>
        </mxCell>
        <mxCell id="Ycs4y-Skzxj3a3CjMxJI-35" value="&lt;span style=&quot;font-size: 14px;&quot;&gt;&lt;b&gt;Mostrar mensaje del sistema&lt;/b&gt;&lt;/span&gt;" style="ellipse;whiteSpace=wrap;html=1;fillColor=#dae8fc;strokeColor=#6c8ebf;strokeWidth=3;fillStyle=hatch;" vertex="1" parent="1">
          <mxGeometry x="-20" y="410" width="170" height="60" as="geometry" />
        </mxCell>
        <mxCell id="MfmdZAIZHtXcBCbhIcDd-2" value="&amp;lt;&amp;lt;include&amp;gt;&amp;gt;" style="html=1;verticalAlign=bottom;labelBackgroundColor=none;endArrow=open;endFill=0;dashed=1;rounded=0;fontSize=13;exitX=0.332;exitY=1;exitDx=0;exitDy=0;entryX=0.5;entryY=0;entryDx=0;entryDy=0;exitPerimeter=0;" edge="1" parent="1" target="MfmdZAIZHtXcBCbhIcDd-3" source="Ycs4y-Skzxj3a3CjMxJI-4">
          <mxGeometry width="160" relative="1" as="geometry">
            <mxPoint x="402" y="414" as="sourcePoint" />
            <mxPoint x="450" y="576" as="targetPoint" />
          </mxGeometry>
        </mxCell>
        <mxCell id="MfmdZAIZHtXcBCbhIcDd-3" value="&lt;span style=&quot;font-size: 14px;&quot;&gt;&lt;b&gt;Validar usuario y clave&lt;/b&gt;&lt;/span&gt;" style="ellipse;whiteSpace=wrap;html=1;fillColor=#dae8fc;strokeColor=#6c8ebf;strokeWidth=3;fillStyle=hatch;" vertex="1" parent="1">
          <mxGeometry x="50" y="510" width="170" height="60" as="geometry" />
        </mxCell>
        <mxCell id="MfmdZAIZHtXcBCbhIcDd-4" value="&amp;lt;&amp;lt;extends&amp;gt;&amp;gt;" style="html=1;verticalAlign=bottom;labelBackgroundColor=none;endArrow=open;endFill=0;dashed=1;rounded=0;fontSize=13;exitX=0.5;exitY=0;exitDx=0;exitDy=0;entryX=0.464;entryY=1.025;entryDx=0;entryDy=0;entryPerimeter=0;fontStyle=1" edge="1" parent="1" target="Ycs4y-Skzxj3a3CjMxJI-4" source="MfmdZAIZHtXcBCbhIcDd-5">
          <mxGeometry x="0.0728" y="-1" width="160" relative="1" as="geometry">
            <mxPoint x="602" y="420" as="sourcePoint" />
            <mxPoint x="370" y="420" as="targetPoint" />
            <mxPoint as="offset" />
          </mxGeometry>
        </mxCell>
        <mxCell id="MfmdZAIZHtXcBCbhIcDd-5" value="&lt;span style=&quot;font-size: 14px;&quot;&gt;&lt;b&gt;Bloquear usuario&lt;/b&gt;&lt;/span&gt;" style="ellipse;whiteSpace=wrap;html=1;fillColor=#dae8fc;strokeColor=#6c8ebf;strokeWidth=3;fillStyle=hatch;" vertex="1" parent="1">
          <mxGeometry x="170" y="700" width="170" height="60" as="geometry" />
        </mxCell>
        <mxCell id="MfmdZAIZHtXcBCbhIcDd-6" value="&amp;lt;&amp;lt;include&amp;gt;&amp;gt;" style="html=1;verticalAlign=bottom;labelBackgroundColor=none;endArrow=open;endFill=0;dashed=1;rounded=0;fontSize=13;exitX=0.6;exitY=1.013;exitDx=0;exitDy=0;entryX=0.5;entryY=0;entryDx=0;entryDy=0;exitPerimeter=0;" edge="1" parent="1" target="MfmdZAIZHtXcBCbhIcDd-7" source="Ycs4y-Skzxj3a3CjMxJI-4">
          <mxGeometry width="160" relative="1" as="geometry">
            <mxPoint x="772" y="378" as="sourcePoint" />
            <mxPoint x="820" y="540" as="targetPoint" />
          </mxGeometry>
        </mxCell>
        <mxCell id="MfmdZAIZHtXcBCbhIcDd-7" value="&lt;b style=&quot;font-size: 14px;&quot;&gt;Cerrar ventana&lt;/b&gt;" style="ellipse;whiteSpace=wrap;html=1;fillColor=#dae8fc;strokeColor=#6c8ebf;strokeWidth=3;fillStyle=hatch;" vertex="1" parent="1">
          <mxGeometry x="290" y="600" width="170" height="60" as="geometry" />
        </mxCell>
        <mxCell id="MfmdZAIZHtXcBCbhIcDd-9" value="&amp;lt;&amp;lt;include&amp;gt;&amp;gt;" style="html=1;verticalAlign=bottom;labelBackgroundColor=none;endArrow=open;endFill=0;dashed=1;rounded=0;fontSize=13;entryX=0.5;entryY=0;entryDx=0;entryDy=0;exitX=0.805;exitY=0.963;exitDx=0;exitDy=0;exitPerimeter=0;" edge="1" parent="1" target="MfmdZAIZHtXcBCbhIcDd-10" source="Ycs4y-Skzxj3a3CjMxJI-4">
          <mxGeometry width="160" relative="1" as="geometry">
            <mxPoint x="510" y="670" as="sourcePoint" />
            <mxPoint x="1005" y="582" as="targetPoint" />
          </mxGeometry>
        </mxCell>
        <mxCell id="MfmdZAIZHtXcBCbhIcDd-10" value="&lt;b style=&quot;font-size: 14px;&quot;&gt;Obtener usuarios&lt;/b&gt;" style="ellipse;whiteSpace=wrap;html=1;fillColor=#dae8fc;strokeColor=#6c8ebf;strokeWidth=3;fillStyle=hatch;" vertex="1" parent="1">
          <mxGeometry x="414" y="700" width="170" height="60" as="geometry" />
        </mxCell>
        <mxCell id="MfmdZAIZHtXcBCbhIcDd-12" value="&lt;b style=&quot;font-size: 14px;&quot;&gt;1.1 Recuperar clave&lt;/b&gt;" style="ellipse;whiteSpace=wrap;html=1;fillColor=#ffe6cc;strokeColor=#d79b00;strokeWidth=3;fillStyle=hatch;" vertex="1" parent="1">
          <mxGeometry x="540" y="170" width="170" height="60" as="geometry" />
        </mxCell>
        <mxCell id="MfmdZAIZHtXcBCbhIcDd-13" value="&amp;lt;&amp;lt;include&amp;gt;&amp;gt;" style="html=1;verticalAlign=bottom;labelBackgroundColor=none;endArrow=open;endFill=0;dashed=1;rounded=0;fontSize=13;entryX=0.5;entryY=0;entryDx=0;entryDy=0;exitX=0.9;exitY=0.825;exitDx=0;exitDy=0;exitPerimeter=0;" edge="1" parent="1" target="MfmdZAIZHtXcBCbhIcDd-14" source="Ycs4y-Skzxj3a3CjMxJI-4">
          <mxGeometry width="160" relative="1" as="geometry">
            <mxPoint x="605" y="374" as="sourcePoint" />
            <mxPoint x="1100" y="286" as="targetPoint" />
          </mxGeometry>
        </mxCell>
        <mxCell id="MfmdZAIZHtXcBCbhIcDd-14" value="&lt;b style=&quot;font-size: 14px;&quot;&gt;Validar datos pantalla&lt;/b&gt;" style="ellipse;whiteSpace=wrap;html=1;fillColor=#dae8fc;strokeColor=#6c8ebf;strokeWidth=3;fillStyle=hatch;" vertex="1" parent="1">
          <mxGeometry x="510" y="530" width="170" height="60" as="geometry" />
        </mxCell>
        <mxCell id="MfmdZAIZHtXcBCbhIcDd-15" value="&amp;lt;&amp;lt;extends&amp;gt;&amp;gt;" style="html=1;verticalAlign=bottom;labelBackgroundColor=none;endArrow=open;endFill=0;dashed=1;rounded=0;fontSize=13;entryX=1;entryY=0;entryDx=0;entryDy=0;exitX=0;exitY=0.5;exitDx=0;exitDy=0;fontStyle=1" edge="1" parent="1" source="MfmdZAIZHtXcBCbhIcDd-12" target="Ycs4y-Skzxj3a3CjMxJI-4">
          <mxGeometry x="-0.1089" y="9" width="160" relative="1" as="geometry">
            <mxPoint x="640" y="390" as="sourcePoint" />
            <mxPoint x="416" y="368" as="targetPoint" />
            <mxPoint as="offset" />
          </mxGeometry>
        </mxCell>
        <mxCell id="MfmdZAIZHtXcBCbhIcDd-16" value="&lt;span style=&quot;font-size: 14px;&quot;&gt;&lt;b&gt;Limpiar interfaz&lt;/b&gt;&lt;/span&gt;" style="ellipse;whiteSpace=wrap;html=1;fillColor=#dae8fc;strokeColor=#6c8ebf;strokeWidth=3;fillStyle=hatch;" vertex="1" parent="1">
          <mxGeometry x="570" y="390" width="170" height="60" as="geometry" />
        </mxCell>
        <mxCell id="MfmdZAIZHtXcBCbhIcDd-17" value="&amp;lt;&amp;lt;extends&amp;gt;&amp;gt;" style="html=1;verticalAlign=bottom;labelBackgroundColor=none;endArrow=open;endFill=0;dashed=1;rounded=0;fontSize=13;exitX=0;exitY=0;exitDx=0;exitDy=0;entryX=0.986;entryY=0.713;entryDx=0;entryDy=0;entryPerimeter=0;fontStyle=1" edge="1" parent="1" source="MfmdZAIZHtXcBCbhIcDd-16" target="Ycs4y-Skzxj3a3CjMxJI-4">
          <mxGeometry x="-0.1122" y="9" width="160" relative="1" as="geometry">
            <mxPoint x="470" y="736" as="sourcePoint" />
            <mxPoint x="590" y="400" as="targetPoint" />
            <mxPoint as="offset" />
          </mxGeometry>
        </mxCell>
        <mxCell id="MfmdZAIZHtXcBCbhIcDd-18" value="&amp;lt;&amp;lt;include&amp;gt;&amp;gt;" style="html=1;verticalAlign=bottom;labelBackgroundColor=none;endArrow=open;endFill=0;dashed=1;rounded=0;fontSize=13;exitX=0;exitY=0;exitDx=0;exitDy=0;entryX=1;entryY=0.5;entryDx=0;entryDy=0;" edge="1" parent="1" target="MfmdZAIZHtXcBCbhIcDd-19" source="Ycs4y-Skzxj3a3CjMxJI-4">
          <mxGeometry width="160" relative="1" as="geometry">
            <mxPoint x="260" y="240" as="sourcePoint" />
            <mxPoint x="160" y="240" as="targetPoint" />
          </mxGeometry>
        </mxCell>
        <mxCell id="MfmdZAIZHtXcBCbhIcDd-19" value="&lt;span style=&quot;font-size: 14px;&quot;&gt;&lt;b&gt;Registrar auditoria&lt;/b&gt;&lt;/span&gt;" style="ellipse;whiteSpace=wrap;html=1;fillColor=#dae8fc;strokeColor=#6c8ebf;strokeWidth=3;fillStyle=hatch;" vertex="1" parent="1">
          <mxGeometry y="170" width="170" height="60" as="geometry" />
        </mxCell>
        <mxCell id="MfmdZAIZHtXcBCbhIcDd-21" value="Obtener Fecha y&amp;nbsp; Hora" style="ellipse;whiteSpace=wrap;html=1;fontSize=13;" vertex="1" parent="1">
          <mxGeometry x="-90" y="310" width="150" height="70" as="geometry" />
        </mxCell>
        <mxCell id="MfmdZAIZHtXcBCbhIcDd-22" value="Obtener IP" style="ellipse;whiteSpace=wrap;html=1;fontSize=13;" vertex="1" parent="1">
          <mxGeometry x="70" y="320" width="110" height="50" as="geometry" />
        </mxCell>
        <mxCell id="MfmdZAIZHtXcBCbhIcDd-23" value="&amp;lt;&amp;lt;include&amp;gt;&amp;gt;" style="html=1;verticalAlign=bottom;labelBackgroundColor=none;endArrow=open;endFill=0;dashed=1;rounded=0;fontSize=13;exitX=0;exitY=1;exitDx=0;exitDy=0;entryX=0.5;entryY=0;entryDx=0;entryDy=0;" edge="1" parent="1" source="MfmdZAIZHtXcBCbhIcDd-19" target="MfmdZAIZHtXcBCbhIcDd-21">
          <mxGeometry width="160" relative="1" as="geometry">
            <mxPoint x="50" y="264" as="sourcePoint" />
            <mxPoint x="-52" y="306" as="targetPoint" />
          </mxGeometry>
        </mxCell>
        <mxCell id="MfmdZAIZHtXcBCbhIcDd-24" value="&amp;lt;&amp;lt;include&amp;gt;&amp;gt;" style="html=1;verticalAlign=bottom;labelBackgroundColor=none;endArrow=open;endFill=0;dashed=1;rounded=0;fontSize=13;exitX=0.577;exitY=1.017;exitDx=0;exitDy=0;entryX=0.437;entryY=-0.038;entryDx=0;entryDy=0;entryPerimeter=0;exitPerimeter=0;" edge="1" parent="1" source="MfmdZAIZHtXcBCbhIcDd-19" target="MfmdZAIZHtXcBCbhIcDd-22">
          <mxGeometry width="160" relative="1" as="geometry">
            <mxPoint x="35" y="241" as="sourcePoint" />
            <mxPoint x="-50" y="315" as="targetPoint" />
          </mxGeometry>
        </mxCell>
        <mxCell id="MfmdZAIZHtXcBCbhIcDd-27" value="Habilitar botón" style="ellipse;whiteSpace=wrap;html=1;fontSize=13;" vertex="1" parent="1">
          <mxGeometry x="610" y="660" width="140" height="70" as="geometry" />
        </mxCell>
        <mxCell id="MfmdZAIZHtXcBCbhIcDd-28" value="&amp;lt;&amp;lt;include&amp;gt;&amp;gt;" style="html=1;verticalAlign=bottom;labelBackgroundColor=none;endArrow=open;endFill=0;dashed=1;rounded=0;fontSize=13;entryX=0.5;entryY=0;entryDx=0;entryDy=0;exitX=0.5;exitY=1;exitDx=0;exitDy=0;" edge="1" parent="1" source="MfmdZAIZHtXcBCbhIcDd-14" target="MfmdZAIZHtXcBCbhIcDd-27">
          <mxGeometry width="160" relative="1" as="geometry">
            <mxPoint x="610" y="600" as="sourcePoint" />
            <mxPoint x="767" y="774" as="targetPoint" />
          </mxGeometry>
        </mxCell>
        <mxCell id="MfmdZAIZHtXcBCbhIcDd-29" value="&amp;lt;&amp;lt;extends&amp;gt;&amp;gt;" style="html=1;verticalAlign=bottom;labelBackgroundColor=none;endArrow=open;endFill=0;dashed=1;rounded=0;fontSize=13;exitX=0.5;exitY=0;exitDx=0;exitDy=0;entryX=0.307;entryY=1.034;entryDx=0;entryDy=0;fontStyle=1;entryPerimeter=0;" edge="1" parent="1" source="MfmdZAIZHtXcBCbhIcDd-30" target="MfmdZAIZHtXcBCbhIcDd-3">
          <mxGeometry x="-0.0417" y="-4" width="160" relative="1" as="geometry">
            <mxPoint x="362" y="458" as="sourcePoint" />
            <mxPoint x="112" y="410" as="targetPoint" />
            <mxPoint y="-1" as="offset" />
          </mxGeometry>
        </mxCell>
        <mxCell id="MfmdZAIZHtXcBCbhIcDd-30" value="&lt;span style=&quot;font-size: 14px;&quot;&gt;&lt;span&gt;Contabilizar intentos de acceso&lt;/span&gt;&lt;/span&gt;" style="ellipse;whiteSpace=wrap;html=1;strokeWidth=1;fillStyle=hatch;fontStyle=0" vertex="1" parent="1">
          <mxGeometry x="-40" y="660" width="170" height="70" as="geometry" />
        </mxCell>
        <mxCell id="MfmdZAIZHtXcBCbhIcDd-32" value="" style="endArrow=block;startArrow=none;endFill=0;startFill=0;endSize=8;html=1;verticalAlign=bottom;dashed=1;labelBackgroundColor=none;rounded=0;" edge="1" parent="1">
          <mxGeometry width="160" relative="1" as="geometry">
            <mxPoint x="280" y="450" as="sourcePoint" />
            <mxPoint x="440" y="450" as="targetPoint" />
          </mxGeometry>
        </mxCell>
      </root>
    </mxGraphModel>
  </diagram>
  <diagram id="npSZL9JvkmaIsH-4_g-m" name="Diseño de Prototipo">
    <mxGraphModel dx="794" dy="788" grid="1" gridSize="10" guides="1" tooltips="1" connect="1" arrows="1" fold="1" page="1" pageScale="1" pageWidth="827" pageHeight="1169" math="0" shadow="0">
      <root>
        <mxCell id="0" />
        <mxCell id="1" parent="0" />
        <mxCell id="UicXff3uZKqoyRDZvgi--1" value="" style="strokeWidth=1;shadow=0;dashed=0;align=center;html=1;shape=mxgraph.mockup.containers.rrect;rSize=0;strokeColor=#666666;fontColor=#666666;fontSize=17;verticalAlign=top;whiteSpace=wrap;fillColor=#ffffff;spacingTop=32;" vertex="1" parent="1">
          <mxGeometry x="280" y="390" width="350" height="250" as="geometry" />
        </mxCell>
        <mxCell id="UicXff3uZKqoyRDZvgi--2" value="Login" style="strokeWidth=1;shadow=0;dashed=0;align=center;html=1;shape=mxgraph.mockup.containers.rrect;rSize=0;fontSize=17;fontColor=#666666;strokeColor=#666666;align=left;spacingLeft=8;fillColor=none;resizeWidth=1;whiteSpace=wrap;" vertex="1" parent="UicXff3uZKqoyRDZvgi--1">
          <mxGeometry width="350" height="30" relative="1" as="geometry" />
        </mxCell>
        <mxCell id="UicXff3uZKqoyRDZvgi--3" value="X" style="shape=ellipse;strokeColor=#008cff;resizable=0;fillColor=none;html=1;" vertex="1" parent="UicXff3uZKqoyRDZvgi--2">
          <mxGeometry x="1" y="0.5" width="20" height="20" relative="1" as="geometry">
            <mxPoint x="-25" y="-10" as="offset" />
          </mxGeometry>
        </mxCell>
        <mxCell id="UicXff3uZKqoyRDZvgi--4" value="********" style="strokeWidth=1;shadow=0;dashed=0;align=center;html=1;shape=mxgraph.mockup.forms.pwField;strokeColor=#999999;mainText=;align=left;fontColor=#666666;fontSize=17;spacingLeft=3;" vertex="1" parent="UicXff3uZKqoyRDZvgi--1">
          <mxGeometry x="133" y="120" width="150" height="30" as="geometry" />
        </mxCell>
        <mxCell id="UicXff3uZKqoyRDZvgi--5" value="Option 1" style="strokeWidth=1;shadow=0;dashed=0;align=center;html=1;shape=mxgraph.mockup.forms.comboBox;strokeColor=#999999;fillColor=#ddeeff;align=left;fillColor2=#aaddff;mainText=;fontColor=#666666;fontSize=17;spacingLeft=3;" vertex="1" parent="UicXff3uZKqoyRDZvgi--1">
          <mxGeometry x="133" y="70" width="150" height="30" as="geometry" />
        </mxCell>
        <mxCell id="UicXff3uZKqoyRDZvgi--6" value="Usuario:" style="text;html=1;align=center;verticalAlign=middle;whiteSpace=wrap;rounded=0;" vertex="1" parent="UicXff3uZKqoyRDZvgi--1">
          <mxGeometry x="64" y="70" width="60" height="30" as="geometry" />
        </mxCell>
        <mxCell id="UicXff3uZKqoyRDZvgi--7" value="Contraseña:" style="text;html=1;align=center;verticalAlign=middle;whiteSpace=wrap;rounded=0;" vertex="1" parent="UicXff3uZKqoyRDZvgi--1">
          <mxGeometry x="64" y="120" width="60" height="30" as="geometry" />
        </mxCell>
        <mxCell id="UicXff3uZKqoyRDZvgi--8" value="✔" style="strokeWidth=1;shadow=0;dashed=0;align=center;html=1;shape=mxgraph.mockup.buttons.button;strokeColor=#666666;fontColor=#ffffff;mainText=;buttonStyle=round;fontSize=17;fontStyle=1;fillColor=#008cff;whiteSpace=wrap;" vertex="1" parent="UicXff3uZKqoyRDZvgi--1">
          <mxGeometry x="70" y="180" width="76" height="40" as="geometry" />
        </mxCell>
        <mxCell id="UicXff3uZKqoyRDZvgi--9" value="❌" style="strokeWidth=1;shadow=0;dashed=0;align=center;html=1;shape=mxgraph.mockup.buttons.button;strokeColor=#666666;fontColor=#ffffff;mainText=;buttonStyle=round;fontSize=17;fontStyle=1;fillColor=#008cff;whiteSpace=wrap;" vertex="1" parent="UicXff3uZKqoyRDZvgi--1">
          <mxGeometry x="220" y="180" width="76" height="40" as="geometry" />
        </mxCell>
        <mxCell id="UicXff3uZKqoyRDZvgi--10" value="Recuperar clave" style="text;html=1;align=center;verticalAlign=middle;whiteSpace=wrap;rounded=0;fontColor=#330AFF;" vertex="1" parent="UicXff3uZKqoyRDZvgi--1">
          <mxGeometry x="124" y="220" width="125" height="30" as="geometry" />
        </mxCell>
        <mxCell id="Uw5xOZVXjxVBrp4wM7aq-1" value="Mensajes del sistema" style="strokeWidth=1;shadow=0;dashed=0;align=center;html=1;shape=mxgraph.mockup.text.textBox;fontColor=#666666;align=left;fontSize=17;spacingLeft=4;spacingTop=-3;whiteSpace=wrap;strokeColor=#666666;mainText=" vertex="1" parent="1">
          <mxGeometry x="280" y="640" width="350" height="30" as="geometry" />
        </mxCell>
      </root>
    </mxGraphModel>
  </diagram>
  <diagram id="AoS3W4IJJHdoRkzwALP2" name="Diagrama de Casos de Uso">
    <mxGraphModel dx="794" dy="788" grid="1" gridSize="10" guides="1" tooltips="1" connect="1" arrows="1" fold="1" page="1" pageScale="1" pageWidth="827" pageHeight="1169" math="0" shadow="0">
      <root>
        <mxCell id="0" />
        <mxCell id="1" parent="0" />
        <mxCell id="1IMz57iY5zE2-zZRHG2V-1" value="Módulo de Seguridad" style="shape=umlFrame;whiteSpace=wrap;html=1;pointerEvents=0;width=150;height=30;fillColor=#dae8fc;strokeColor=#6c8ebf;" vertex="1" parent="1">
          <mxGeometry x="264" y="310" width="326" height="770" as="geometry" />
        </mxCell>
        <mxCell id="gperXO6G-hdEZjDOBq1A-1" value="&lt;span style=&quot;font-size: 14px;&quot;&gt;&lt;b&gt;1.0 Validar acceso al sistema&lt;/b&gt;&lt;/span&gt;" style="ellipse;whiteSpace=wrap;html=1;fillColor=#dae8fc;strokeColor=#6c8ebf;strokeWidth=3;" vertex="1" parent="1">
          <mxGeometry x="317" y="370" width="220" height="80" as="geometry" />
        </mxCell>
        <mxCell id="gperXO6G-hdEZjDOBq1A-2" value="1.1 Recuperar Clave" style="ellipse;whiteSpace=wrap;html=1;fillColor=#dae8fc;strokeColor=#6c8ebf;fillStyle=hatch;" vertex="1" parent="1">
          <mxGeometry x="327" y="470" width="200" height="70" as="geometry" />
        </mxCell>
        <mxCell id="gperXO6G-hdEZjDOBq1A-3" value="1.2 Gestionar módulos" style="ellipse;whiteSpace=wrap;html=1;fillColor=#dae8fc;strokeColor=#6c8ebf;fillStyle=hatch;" vertex="1" parent="1">
          <mxGeometry x="327" y="570" width="200" height="70" as="geometry" />
        </mxCell>
        <mxCell id="gperXO6G-hdEZjDOBq1A-4" value="1.3 Gestionar roles" style="ellipse;whiteSpace=wrap;html=1;fillColor=#dae8fc;strokeColor=#6c8ebf;fillStyle=hatch;" vertex="1" parent="1">
          <mxGeometry x="327" y="670" width="200" height="70" as="geometry" />
        </mxCell>
        <mxCell id="gperXO6G-hdEZjDOBq1A-5" value="1.4 Gestionar usuarios" style="ellipse;whiteSpace=wrap;html=1;fillColor=#dae8fc;strokeColor=#6c8ebf;fillStyle=hatch;" vertex="1" parent="1">
          <mxGeometry x="327" y="760" width="200" height="70" as="geometry" />
        </mxCell>
        <mxCell id="gperXO6G-hdEZjDOBq1A-6" value="1.5 Habilitar accesos" style="ellipse;whiteSpace=wrap;html=1;fillColor=#dae8fc;strokeColor=#6c8ebf;fillStyle=hatch;" vertex="1" parent="1">
          <mxGeometry x="327" y="860" width="200" height="70" as="geometry" />
        </mxCell>
        <mxCell id="gperXO6G-hdEZjDOBq1A-7" value="1.6 Consultar accesos por fechas" style="ellipse;whiteSpace=wrap;html=1;fillColor=#dae8fc;strokeColor=#6c8ebf;fillStyle=hatch;" vertex="1" parent="1">
          <mxGeometry x="327" y="960" width="200" height="70" as="geometry" />
        </mxCell>
        <mxCell id="gperXO6G-hdEZjDOBq1A-8" value="Usuario del sistema" style="shape=umlActor;verticalLabelPosition=bottom;verticalAlign=top;html=1;fillColor=#dae8fc;strokeColor=#6c8ebf;" vertex="1" parent="1">
          <mxGeometry x="50" y="430" width="60" height="90" as="geometry" />
        </mxCell>
        <mxCell id="gperXO6G-hdEZjDOBq1A-9" value="Administrador del sistema" style="shape=umlActor;verticalLabelPosition=bottom;verticalAlign=top;html=1;fillColor=#dae8fc;strokeColor=#6c8ebf;" vertex="1" parent="1">
          <mxGeometry x="50" y="720" width="60" height="90" as="geometry" />
        </mxCell>
        <mxCell id="gperXO6G-hdEZjDOBq1A-13" value="" style="endArrow=none;startArrow=none;endFill=0;startFill=0;endSize=8;html=1;verticalAlign=bottom;labelBackgroundColor=none;strokeWidth=3;rounded=0;exitX=1;exitY=0.3333333333333333;exitDx=0;exitDy=0;exitPerimeter=0;entryX=0;entryY=0.5;entryDx=0;entryDy=0;fillColor=#dae8fc;strokeColor=#6c8ebf;" edge="1" parent="1" source="gperXO6G-hdEZjDOBq1A-8" target="gperXO6G-hdEZjDOBq1A-1">
          <mxGeometry width="160" relative="1" as="geometry">
            <mxPoint x="330" y="510" as="sourcePoint" />
            <mxPoint x="490" y="510" as="targetPoint" />
          </mxGeometry>
        </mxCell>
        <mxCell id="gperXO6G-hdEZjDOBq1A-14" value="" style="endArrow=none;startArrow=none;endFill=0;startFill=0;endSize=8;html=1;verticalAlign=bottom;labelBackgroundColor=none;strokeWidth=3;rounded=0;exitX=1;exitY=0.3333333333333333;exitDx=0;exitDy=0;exitPerimeter=0;entryX=0;entryY=0.5;entryDx=0;entryDy=0;fillColor=#dae8fc;strokeColor=#6c8ebf;" edge="1" parent="1" source="gperXO6G-hdEZjDOBq1A-8" target="gperXO6G-hdEZjDOBq1A-2">
          <mxGeometry width="160" relative="1" as="geometry">
            <mxPoint x="120" y="470" as="sourcePoint" />
            <mxPoint x="327" y="420" as="targetPoint" />
          </mxGeometry>
        </mxCell>
        <mxCell id="gperXO6G-hdEZjDOBq1A-15" value="" style="endArrow=none;startArrow=none;endFill=0;startFill=0;endSize=8;html=1;verticalAlign=bottom;labelBackgroundColor=none;strokeWidth=3;rounded=0;exitX=1;exitY=0.3333333333333333;exitDx=0;exitDy=0;exitPerimeter=0;entryX=0;entryY=0.5;entryDx=0;entryDy=0;fillColor=#dae8fc;strokeColor=#6c8ebf;" edge="1" parent="1" source="gperXO6G-hdEZjDOBq1A-9" target="gperXO6G-hdEZjDOBq1A-3">
          <mxGeometry width="160" relative="1" as="geometry">
            <mxPoint x="130" y="785" as="sourcePoint" />
            <mxPoint x="347" y="850" as="targetPoint" />
          </mxGeometry>
        </mxCell>
        <mxCell id="gperXO6G-hdEZjDOBq1A-16" value="" style="endArrow=none;startArrow=none;endFill=0;startFill=0;endSize=8;html=1;verticalAlign=bottom;labelBackgroundColor=none;strokeWidth=3;rounded=0;exitX=1;exitY=0.3333333333333333;exitDx=0;exitDy=0;exitPerimeter=0;entryX=0;entryY=0.5;entryDx=0;entryDy=0;fillColor=#dae8fc;strokeColor=#6c8ebf;" edge="1" parent="1" source="gperXO6G-hdEZjDOBq1A-9" target="gperXO6G-hdEZjDOBq1A-4">
          <mxGeometry width="160" relative="1" as="geometry">
            <mxPoint x="120" y="760" as="sourcePoint" />
            <mxPoint x="337" y="630" as="targetPoint" />
          </mxGeometry>
        </mxCell>
        <mxCell id="gperXO6G-hdEZjDOBq1A-17" value="" style="endArrow=none;startArrow=none;endFill=0;startFill=0;endSize=8;html=1;verticalAlign=bottom;labelBackgroundColor=none;strokeWidth=3;rounded=0;entryX=0;entryY=0.5;entryDx=0;entryDy=0;fillColor=#dae8fc;strokeColor=#6c8ebf;" edge="1" parent="1" target="gperXO6G-hdEZjDOBq1A-5">
          <mxGeometry width="160" relative="1" as="geometry">
            <mxPoint x="110" y="750" as="sourcePoint" />
            <mxPoint x="347" y="640" as="targetPoint" />
          </mxGeometry>
        </mxCell>
        <mxCell id="gperXO6G-hdEZjDOBq1A-18" value="" style="endArrow=none;startArrow=none;endFill=0;startFill=0;endSize=8;html=1;verticalAlign=bottom;labelBackgroundColor=none;strokeWidth=3;rounded=0;exitX=1;exitY=0.3333333333333333;exitDx=0;exitDy=0;exitPerimeter=0;entryX=0;entryY=0.5;entryDx=0;entryDy=0;fillColor=#dae8fc;strokeColor=#6c8ebf;" edge="1" parent="1" source="gperXO6G-hdEZjDOBq1A-9" target="gperXO6G-hdEZjDOBq1A-6">
          <mxGeometry width="160" relative="1" as="geometry">
            <mxPoint x="140" y="780" as="sourcePoint" />
            <mxPoint x="357" y="650" as="targetPoint" />
          </mxGeometry>
        </mxCell>
        <mxCell id="gperXO6G-hdEZjDOBq1A-19" value="" style="endArrow=none;startArrow=none;endFill=0;startFill=0;endSize=8;html=1;verticalAlign=bottom;labelBackgroundColor=none;strokeWidth=3;rounded=0;entryX=0;entryY=0.5;entryDx=0;entryDy=0;exitX=1;exitY=0.3333333333333333;exitDx=0;exitDy=0;exitPerimeter=0;fillColor=#dae8fc;strokeColor=#6c8ebf;" edge="1" parent="1" source="gperXO6G-hdEZjDOBq1A-9" target="gperXO6G-hdEZjDOBq1A-7">
          <mxGeometry width="160" relative="1" as="geometry">
            <mxPoint x="120" y="760" as="sourcePoint" />
            <mxPoint x="367" y="660" as="targetPoint" />
          </mxGeometry>
        </mxCell>
        <mxCell id="gperXO6G-hdEZjDOBq1A-20" value="" style="endArrow=block;startArrow=none;endFill=0;startFill=0;endSize=8;html=1;verticalAlign=bottom;dashed=1;labelBackgroundColor=none;rounded=0;exitX=0.5;exitY=0;exitDx=0;exitDy=0;exitPerimeter=0;fillColor=#dae8fc;strokeColor=#6c8ebf;" edge="1" parent="1" source="gperXO6G-hdEZjDOBq1A-9">
          <mxGeometry width="160" relative="1" as="geometry">
            <mxPoint x="330" y="710" as="sourcePoint" />
            <mxPoint x="80" y="540" as="targetPoint" />
          </mxGeometry>
        </mxCell>
      </root>
    </mxGraphModel>
  </diagram>
</mxfile>
